<svg xmlns="http://www.w3.org/2000/svg" width="240" height="240" viewBox="0 0 120 120" role="img" aria-label="Mochi, Bookkeeper"><rect width="120" height="120" rx="60" fill="#17181b"/><path d="M35 60 C31 30 46 21 60 21 C74 21 89 30 85 60 L79 60 C81 42 73 35 60 35 C47 35 39 42 41 60 Z" fill="#1a1a22"></path><path d="M16 120 C16 94 36 82 60 82 C84 82 104 94 104 120 Z" fill="#2a9d8f"></path><rect x="52" y="68" width="16" height="16" rx="6" fill="#dcae8a"></rect><circle cx="38" cy="53" r="5" fill="#f3cfae"></circle><circle cx="82" cy="53" r="5" fill="#f3cfae"></circle><ellipse cx="60" cy="50" rx="22" ry="25" fill="#f3cfae"></ellipse><path d="M50 82 L56 90 L60 84 L64 90 L70 82 Z" fill="#f2f3f5"></path><circle cx="60" cy="98" r="1.6" fill="#f2f3f5"></circle><circle cx="60" cy="106" r="1.6" fill="#f2f3f5"></circle><circle cx="60" cy="114" r="1.6" fill="#f2f3f5"></circle><path d="M38 46 C38 30 48 26 60 26 C72 26 82 30 82 46 C77 40 70 38 60 38 C50 38 43 40 38 46 Z" fill="#1a1a22"></path><path d="M35 38 Q60 30 85 38 L85 42 Q60 34 35 42 Z" fill="#1e7a52"></path><path d="M38 41 Q60 34 82 41 L88 50 Q60 41 32 50 Z" fill="#3ecf8e" opacity="0.8"></path><circle cx="51" cy="53" r="2.6" fill="#1b1530"></circle><circle cx="69" cy="53" r="2.6" fill="#1b1530"></circle><circle cx="45" cy="60" r="3.5" fill="#f29a9a" opacity="0.55"></circle><circle cx="75" cy="60" r="3.5" fill="#f29a9a" opacity="0.55"></circle><path d="M54 64 Q60 69 66 64" stroke="#a8453a" stroke-width="2.2" fill="none" stroke-linecap="round"></path><rect x="70" y="95" width="24" height="20" rx="2" fill="#8b5a2b"></rect><rect x="70" y="95" width="4" height="20" fill="#6b4220"></rect><path d="M77 101 L90 101 M77 105 L90 105 M77 109 L86 109" stroke="#f4ead9" stroke-width="1.4"></path></svg>