<svg xmlns="http://www.w3.org/2000/svg" viewBox="0 0 64 64" width="64" height="64"><circle cx="32" cy="32" r="31" fill="#d8f5ef"/><rect x="9" y="29" width="5" height="10" rx="2.5" fill="#3fbfaa"/><rect x="50" y="29" width="5" height="10" rx="2.5" fill="#3fbfaa"/><rect x="12" y="16" width="40" height="34" rx="16" fill="#3fbfaa"/><rect x="17" y="24" width="30" height="20" rx="9" fill="#ffffff" opacity=".92"/><circle cx="25" cy="32" r="3.6" fill="#1b2230"/><circle cx="39" cy="32" r="3.6" fill="#1b2230"/><circle cx="26.3" cy="30.8" r="1.2" fill="#fff"/><circle cx="40.3" cy="30.8" r="1.2" fill="#fff"/><circle cx="20.5" cy="39" r="2.4" fill="#ffb3c1" opacity=".85"/><circle cx="43.5" cy="39" r="2.4" fill="#ffb3c1" opacity=".85"/><path d="M28 40q4 3.5 8 0" fill="none" stroke="#1b2230" stroke-width="2.2" stroke-linecap="round"/><rect x="24" y="52" width="16" height="7" rx="3.5" fill="#3fbfaa"/><path d="M32 16V9" stroke="#2a8f7f" stroke-width="2.4" stroke-linecap="round"/><circle cx="35.6" cy="7.0" r="2.6" fill="#ffe08a"/><circle cx="33.11258807005825" cy="10.423762226902456" r="2.6" fill="#ffe08a"/><circle cx="29.087695674242187" cy="9.116242782426518" r="2.6" fill="#ffe08a"/><circle cx="29.087303569265547" cy="4.884296924805664" r="2.6" fill="#ffe08a"/><circle cx="33.111953603237595" cy="3.5760316613252785" r="2.6" fill="#ffe08a"/><circle cx="32" cy="7" r="2" fill="#f59e4b"/></svg>