<svg xmlns="http://www.w3.org/2000/svg" viewBox="0 0 64 64" width="64" height="64"><circle cx="32" cy="32" r="31" fill="#fff1cc"/><rect x="9" y="29" width="5" height="10" rx="2.5" fill="#f2b93b"/><rect x="50" y="29" width="5" height="10" rx="2.5" fill="#f2b93b"/><rect x="12" y="16" width="40" height="34" rx="16" fill="#f2b93b"/><rect x="17" y="24" width="30" height="20" rx="9" fill="#ffffff" opacity=".92"/><path d="M21.5 33q3.5-4.5 7 0M35.5 33q3.5-4.5 7 0" fill="none" stroke="#1b2230" stroke-width="2.6" stroke-linecap="round"/><circle cx="20.5" cy="39" r="2.4" fill="#ffb3c1" opacity=".85"/><circle cx="43.5" cy="39" r="2.4" fill="#ffb3c1" opacity=".85"/><ellipse cx="32" cy="41" rx="2.6" ry="3" fill="#1b2230"/><rect x="24" y="52" width="16" height="7" rx="3.5" fill="#f2b93b"/><path d="M19 17l13-10 13 10z" fill="#ffffff" stroke="#c48a12" stroke-width="1.6" stroke-linejoin="round"/><path d="M24 14h16M26 11.5h12" stroke="#c48a12" stroke-width="1.2"/></svg>