<svg xmlns="http://www.w3.org/2000/svg" viewBox="0 0 64 64" width="64" height="64"><circle cx="32" cy="32" r="31" fill="#ffe1d8"/><rect x="9" y="29" width="5" height="10" rx="2.5" fill="#f2785c"/><rect x="50" y="29" width="5" height="10" rx="2.5" fill="#f2785c"/><rect x="14" y="13" width="36" height="38" rx="14" fill="#f2785c"/><rect x="17" y="24" width="30" height="20" rx="9" fill="#ffffff" opacity=".92"/><circle cx="25" cy="33" r="3.4" fill="#1b2230"/><circle cx="39" cy="33" r="3.4" fill="#1b2230"/><path d="M20 26.5l9 2.5M44 25.5l-9 3" stroke="#1b2230" stroke-width="2.4" stroke-linecap="round"/><circle cx="20.5" cy="39" r="2.4" fill="#ffb3c1" opacity=".85"/><circle cx="43.5" cy="39" r="2.4" fill="#ffb3c1" opacity=".85"/><path d="M28.5 41h7" stroke="#1b2230" stroke-width="2.2" stroke-linecap="round"/><rect x="24" y="52" width="16" height="7" rx="3.5" fill="#f2785c"/><path d="M32 16V8" stroke="#b9472e" stroke-width="2.4" stroke-linecap="round"/><circle cx="32" cy="7" r="3.2" fill="#b9472e"/><rect x="44" y="45" width="13" height="16" rx="2" fill="#fff" stroke="#b9472e" stroke-width="1.6"/><path d="M47 50l2 2 4-4M47 56h7" stroke="#b9472e" stroke-width="1.6" fill="none" stroke-linecap="round"/></svg>