<svg xmlns="http://www.w3.org/2000/svg" viewBox="0 0 64 64" width="64" height="64"><circle cx="32" cy="32" r="31" fill="#e3ebf5"/><rect x="9" y="29" width="5" height="10" rx="2.5" fill="#7f97b5"/><rect x="50" y="29" width="5" height="10" rx="2.5" fill="#7f97b5"/><rect x="12" y="16" width="40" height="34" rx="9" fill="#7f97b5"/><rect x="17" y="24" width="30" height="20" rx="9" fill="#ffffff" opacity=".92"/><circle cx="25" cy="32" r="6" fill="#fff" stroke="#1b2230" stroke-width="2"/><circle cx="39" cy="32" r="6" fill="#fff" stroke="#1b2230" stroke-width="2"/><path d="M31 32h2" stroke="#1b2230" stroke-width="2"/><circle cx="25" cy="32.5" r="2.4" fill="#1b2230"/><circle cx="39" cy="32.5" r="2.4" fill="#1b2230"/><circle cx="20.5" cy="39" r="2.4" fill="#ffb3c1" opacity=".85"/><circle cx="43.5" cy="39" r="2.4" fill="#ffb3c1" opacity=".85"/><path d="M28 40q4 3.5 8 0" fill="none" stroke="#1b2230" stroke-width="2.2" stroke-linecap="round"/><rect x="24" y="52" width="16" height="7" rx="3.5" fill="#7f97b5"/><path d="M32 16V9" stroke="#55708f" stroke-width="2.4" stroke-linecap="round"/><rect x="28.5" y="4" width="7" height="6" rx="2" fill="#55708f"/><path d="M45 46l7 2.5v5c0 4-3 6.5-7 8-4-1.5-7-4-7-8v-5z" fill="#3fbfaa" stroke="#1f6f62" stroke-width="1.4"/><path d="M42 54l2.2 2.2 4-4.4" stroke="#fff" stroke-width="1.8" fill="none" stroke-linecap="round"/></svg>